<mxfile host="Electron" agent="Mozilla/5.0 (Windows NT 10.0; Win64; x64) AppleWebKit/537.36 (KHTML, like Gecko) draw.io/26.1.1 Chrome/132.0.6834.210 Electron/34.3.3 Safari/537.36" version="26.1.1">
  <diagram name="第 1 页" id="-_JKTtT6VlPfgLTdWKBh">
    <mxGraphModel dx="1562" dy="917" grid="1" gridSize="10" guides="1" tooltips="1" connect="1" arrows="1" fold="1" page="1" pageScale="1" pageWidth="827" pageHeight="1169" math="0" shadow="0">
      <root>
        <mxCell id="0" />
        <mxCell id="1" parent="0" />
        <mxCell id="cyvYtrlr9KcBXcUvq1pb-4" style="edgeStyle=orthogonalEdgeStyle;rounded=0;orthogonalLoop=1;jettySize=auto;html=1;exitX=0.5;exitY=0;exitDx=0;exitDy=0;entryX=0;entryY=0.5;entryDx=0;entryDy=0;" edge="1" parent="1" source="cyvYtrlr9KcBXcUvq1pb-1" target="cyvYtrlr9KcBXcUvq1pb-3">
          <mxGeometry relative="1" as="geometry" />
        </mxCell>
        <mxCell id="cyvYtrlr9KcBXcUvq1pb-5" value="method" style="edgeLabel;html=1;align=center;verticalAlign=middle;resizable=0;points=[];" vertex="1" connectable="0" parent="cyvYtrlr9KcBXcUvq1pb-4">
          <mxGeometry x="0.1257" y="-1" relative="1" as="geometry">
            <mxPoint as="offset" />
          </mxGeometry>
        </mxCell>
        <mxCell id="cyvYtrlr9KcBXcUvq1pb-7" style="edgeStyle=orthogonalEdgeStyle;rounded=0;orthogonalLoop=1;jettySize=auto;html=1;exitX=0.5;exitY=1;exitDx=0;exitDy=0;entryX=0;entryY=0.5;entryDx=0;entryDy=0;" edge="1" parent="1" source="cyvYtrlr9KcBXcUvq1pb-1" target="cyvYtrlr9KcBXcUvq1pb-6">
          <mxGeometry relative="1" as="geometry" />
        </mxCell>
        <mxCell id="cyvYtrlr9KcBXcUvq1pb-8" value="owner" style="edgeLabel;html=1;align=center;verticalAlign=middle;resizable=0;points=[];" vertex="1" connectable="0" parent="cyvYtrlr9KcBXcUvq1pb-7">
          <mxGeometry x="0.0892" y="4" relative="1" as="geometry">
            <mxPoint as="offset" />
          </mxGeometry>
        </mxCell>
        <mxCell id="cyvYtrlr9KcBXcUvq1pb-1" value="方法" style="html=1;whiteSpace=wrap;" vertex="1" parent="1">
          <mxGeometry x="120" y="540" width="110" height="50" as="geometry" />
        </mxCell>
        <mxCell id="cyvYtrlr9KcBXcUvq1pb-15" style="edgeStyle=orthogonalEdgeStyle;rounded=0;orthogonalLoop=1;jettySize=auto;html=1;exitX=1;exitY=0.5;exitDx=0;exitDy=0;" edge="1" parent="1" source="cyvYtrlr9KcBXcUvq1pb-3" target="cyvYtrlr9KcBXcUvq1pb-14">
          <mxGeometry relative="1" as="geometry" />
        </mxCell>
        <mxCell id="cyvYtrlr9KcBXcUvq1pb-3" value="原生函数、Python函数、类构造函数" style="html=1;whiteSpace=wrap;" vertex="1" parent="1">
          <mxGeometry x="270" y="470" width="110" height="50" as="geometry" />
        </mxCell>
        <mxCell id="cyvYtrlr9KcBXcUvq1pb-11" style="edgeStyle=orthogonalEdgeStyle;rounded=0;orthogonalLoop=1;jettySize=auto;html=1;exitX=1;exitY=0.5;exitDx=0;exitDy=0;entryX=0.5;entryY=0;entryDx=0;entryDy=0;" edge="1" parent="1" source="cyvYtrlr9KcBXcUvq1pb-6" target="cyvYtrlr9KcBXcUvq1pb-10">
          <mxGeometry relative="1" as="geometry" />
        </mxCell>
        <mxCell id="cyvYtrlr9KcBXcUvq1pb-12" value="插入到参数列表头部" style="edgeLabel;html=1;align=center;verticalAlign=middle;resizable=0;points=[];" vertex="1" connectable="0" parent="cyvYtrlr9KcBXcUvq1pb-11">
          <mxGeometry x="-0.0737" y="4" relative="1" as="geometry">
            <mxPoint as="offset" />
          </mxGeometry>
        </mxCell>
        <mxCell id="cyvYtrlr9KcBXcUvq1pb-6" value="Python对象" style="html=1;whiteSpace=wrap;" vertex="1" parent="1">
          <mxGeometry x="270" y="600" width="110" height="50" as="geometry" />
        </mxCell>
        <mxCell id="cyvYtrlr9KcBXcUvq1pb-13" style="edgeStyle=orthogonalEdgeStyle;rounded=0;orthogonalLoop=1;jettySize=auto;html=1;exitX=1;exitY=0.5;exitDx=0;exitDy=0;entryX=0.5;entryY=1;entryDx=0;entryDy=0;" edge="1" parent="1" source="cyvYtrlr9KcBXcUvq1pb-9" target="cyvYtrlr9KcBXcUvq1pb-10">
          <mxGeometry relative="1" as="geometry" />
        </mxCell>
        <mxCell id="cyvYtrlr9KcBXcUvq1pb-9" value="参数列表" style="html=1;whiteSpace=wrap;" vertex="1" parent="1">
          <mxGeometry x="270" y="700" width="110" height="50" as="geometry" />
        </mxCell>
        <mxCell id="cyvYtrlr9KcBXcUvq1pb-16" style="edgeStyle=orthogonalEdgeStyle;rounded=0;orthogonalLoop=1;jettySize=auto;html=1;exitX=1;exitY=0.5;exitDx=0;exitDy=0;entryX=0.5;entryY=1;entryDx=0;entryDy=0;" edge="1" parent="1" source="cyvYtrlr9KcBXcUvq1pb-10" target="cyvYtrlr9KcBXcUvq1pb-14">
          <mxGeometry relative="1" as="geometry" />
        </mxCell>
        <mxCell id="cyvYtrlr9KcBXcUvq1pb-10" value="真正的参数列表" style="html=1;whiteSpace=wrap;" vertex="1" parent="1">
          <mxGeometry x="500" y="650" width="110" height="50" as="geometry" />
        </mxCell>
        <mxCell id="cyvYtrlr9KcBXcUvq1pb-14" value="使用method来加载真正的参数列表并运行" style="html=1;whiteSpace=wrap;" vertex="1" parent="1">
          <mxGeometry x="630" y="540" width="110" height="50" as="geometry" />
        </mxCell>
      </root>
    </mxGraphModel>
  </diagram>
</mxfile>
